<svg xmlns="http://www.w3.org/2000/svg" viewBox="0 0 100 100"><defs/><path fill="#fff" d="M43 0l-1.7 16.3a34.9 34.9 0 00-9 3.7L19.6 9.7l-10 9.9L20 32.3a34.9 34.9 0 00-3.8 9L0 43v14l16.3 1.7a34.9 34.9 0 003.7 9L9.7 80.4l9.9 10L32.3 80a34.9 34.9 0 009 3.8L43 100h14l1.7-16.3a34.9 34.9 0 009-3.7l12.7 10.3 10-9.9L80 67.7a34.9 34.9 0 003.8-9L100 57V43l-16.3-1.7a34.9 34.9 0 00-3.7-9l10.3-12.7-9.9-10L67.7 20a34.9 34.9 0 00-9-3.8L57 0zm7 35a15 15 0 0115 15 15 15 0 01-15 15 15 15 0 01-15-15 15 15 0 0115-15z"/></svg>
